<svg width="40" height="40" viewBox="0 0 40 40" fill="none" xmlns="http://www.w3.org/2000/svg">
  <!-- Background circle -->
  <circle cx="20" cy="20" r="19" fill="url(#backgroundGradient)" stroke="url(#borderGradient)" stroke-width="2"/>

  <!-- Code brackets -->
  <path d="M12 14L16 18L12 22" stroke="url(#codeGradient)" stroke-width="2.5" stroke-linecap="round" stroke-linejoin="round"/>
  <path d="M28 14L24 18L28 22" stroke="url(#codeGradient)" stroke-width="2.5" stroke-linecap="round" stroke-linejoin="round"/>

  <!-- Code lines -->
  <path d="M18 16H22" stroke="url(#codeGradient)" stroke-width="2" stroke-linecap="round"/>
  <path d="M17 20H25" stroke="url(#codeGradient)" stroke-width="2" stroke-linecap="round"/>

  <!-- AI brain icon -->
  <circle cx="20" cy="28" r="3" fill="url(#aiGradient)" opacity="0.8"/>
  <path d="M20 25C20 25 21 26 22 26C23 26 24 25 24 25" stroke="url(#aiGradient)" stroke-width="1.5" stroke-linecap="round" opacity="0.6"/>
  <path d="M20 25C20 25 19 26 18 26C17 26 16 25 16 25" stroke="url(#aiGradient)" stroke-width="1.5" stroke-linecap="round" opacity="0.6"/>

  <!-- Decorative sparkles -->
  <circle cx="8" cy="12" r="1" fill="url(#sparkleGradient)" opacity="0.7">
    <animate attributeName="opacity" values="0.3;0.8;0.3" dur="2s" repeatCount="indefinite"/>
  </circle>
  <circle cx="32" cy="28" r="1" fill="url(#sparkleGradient)" opacity="0.7">
    <animate attributeName="opacity" values="0.3;0.8;0.3" dur="2.5s" repeatCount="indefinite"/>
  </circle>
  <circle cx="30" cy="10" r="0.8" fill="url(#sparkleGradient)" opacity="0.6">
    <animate attributeName="opacity" values="0.2;0.7;0.2" dur="1.8s" repeatCount="indefinite"/>
  </circle>

  <!-- Gradient definitions -->
  <defs>
    <!-- Background gradient -->
    <linearGradient id="backgroundGradient" x1="0%" y1="0%" x2="100%" y2="100%">
      <stop offset="0%" stop-color="#1a1a2e"/>
      <stop offset="50%" stop-color="#16213e"/>
      <stop offset="100%" stop-color="#0f3460"/>
    </linearGradient>

    <!-- Border gradient -->
    <linearGradient id="borderGradient" x1="0%" y1="0%" x2="100%" y2="100%">
      <stop offset="0%" stop-color="#4facfe"/>
      <stop offset="50%" stop-color="#00f2fe"/>
      <stop offset="100%" stop-color="#43e97b"/>
    </linearGradient>

    <!-- Code gradient -->
    <linearGradient id="codeGradient" x1="0%" y1="0%" x2="100%" y2="100%">
      <stop offset="0%" stop-color="#667eea"/>
      <stop offset="100%" stop-color="#764ba2"/>
    </linearGradient>

    <!-- AI gradient -->
    <linearGradient id="aiGradient" x1="0%" y1="0%" x2="100%" y2="100%">
      <stop offset="0%" stop-color="#f093fb"/>
      <stop offset="100%" stop-color="#f5576c"/>
    </linearGradient>

    <!-- Sparkle gradient -->
    <radialGradient id="sparkleGradient" cx="50%" cy="50%" r="50%">
      <stop offset="0%" stop-color="#ffffff"/>
      <stop offset="100%" stop-color="#4facfe"/>
    </radialGradient>
  </defs>
</svg>
